# xmcd
#
# Track frame offsets:
#	150
#	28282
#	48008
#	73403
#	91937
#	127426
#	149928
#	178723
#	199993
#	245182
#
# Disc length: 3547 seconds
#
# Revision: 1
# Processed by: cddbd v1.5.1PL0 Copyright (c) Steve Scherf et al.
# Submitted via: audiograbber 1.80
#
DISCID=ab0dd90a
DTITLE=yoga mela - an eastern vibrational experience
DYEAR=1900
DGENRE=
TTITLE0=hari om shiva om (dj cheb i sabbah's desi remix)
TTITLE1=the divine sound (edit)
TTITLE2=a llil
TTITLE3=ishq (dj cheb i sabbah's delhi masjid remix)
TTITLE4=bolo hari (niraj chag remix)
TTITLE5=hayat (life)
TTITLE6=catu (vienna sub mix)
TTITLE7=sidi 'h bibi (toires remix)
TTITLE8=nanak
TTITLE9=gayatri mantra (esha remix)
EXTD=
EXTT0=
EXTT1=
EXTT2=
EXTT3=
EXTT4=
EXTT5=
EXTT6=
EXTT7=
EXTT8=
EXTT9=
PLAYORDER=
